<svg width="390" height="75" viewBox="0 0 390 75" fill="none" xmlns="http://www.w3.org/2000/svg">
<path d="M-19 64C-19 33.8301 -19 18.7452 -9.62742 9.37258C-0.254833 0 14.8301 0 45 0H345C375.17 0 390.255 0 399.627 9.37258C409 18.7452 409 33.8301 409 64V75H-19V64Z" fill="#131313"/>
<path d="M22.7168 52.8184V55.9414H25.9336V56.6621H22.7168V60.5H21.9609V52.0977H26.6895V52.8184H22.7168ZM31.418 60.5L31.0195 59.9023C30.8555 60.1172 30.6504 60.291 30.4043 60.4238C30.1582 60.5527 29.8887 60.6172 29.5957 60.6172H29.4141C29.1719 60.6172 28.9434 60.5723 28.7285 60.4824C28.5137 60.3887 28.3262 60.2617 28.166 60.1016C28.0059 59.9414 27.8789 59.7539 27.7852 59.5391C27.6953 59.3242 27.6504 59.0957 27.6504 58.8535V58.7949C27.6504 58.5527 27.6953 58.3242 27.7852 58.1094C27.8789 57.8945 28.0059 57.707 28.166 57.5469C28.3262 57.3867 28.5137 57.2617 28.7285 57.1719C28.9434 57.0781 29.1719 57.0312 29.4141 57.0312H30.9375V56.1055C30.9375 55.9609 30.9102 55.8262 30.8555 55.7012C30.8008 55.5723 30.7266 55.4609 30.6328 55.3672C30.5391 55.2734 30.4277 55.1992 30.2988 55.1445C30.1738 55.0898 30.0391 55.0625 29.8945 55.0625H29.4727C29.3281 55.0625 29.1914 55.0898 29.0625 55.1445C28.9375 55.1992 28.8281 55.2734 28.7344 55.3672C28.6406 55.4609 28.5664 55.5723 28.5117 55.7012C28.457 55.8262 28.4297 55.9609 28.4297 56.1055V56.3223L27.709 56.2051V56.1465C27.709 55.9043 27.7539 55.6758 27.8438 55.4609C27.9375 55.2461 28.0645 55.0586 28.2246 54.8984C28.3848 54.7383 28.5723 54.6133 28.7871 54.5234C29.002 54.4297 29.2305 54.3828 29.4727 54.3828H29.8945C30.1367 54.3828 30.3652 54.4297 30.5801 54.5234C30.7949 54.6133 30.9824 54.7383 31.1426 54.8984C31.3027 55.0586 31.4277 55.2461 31.5176 55.4609C31.6113 55.6758 31.6582 55.9043 31.6582 56.1465V60.5H31.418ZM30.9375 57.5938H29.4141C29.2695 57.5938 29.1328 57.6211 29.0039 57.6758C28.8789 57.7305 28.7695 57.8066 28.6758 57.9043C28.582 57.998 28.5078 58.1094 28.4531 58.2383C28.3984 58.3633 28.3711 58.498 28.3711 58.6426V58.8945C28.3711 59.0391 28.3984 59.1758 28.4531 59.3047C28.5078 59.4297 28.582 59.5391 28.6758 59.6328C28.7695 59.7266 28.8789 59.8008 29.0039 59.8555C29.1328 59.9102 29.2695 59.9375 29.4141 59.9375H29.8945C30.0391 59.9375 30.1738 59.9102 30.2988 59.8555C30.4277 59.8008 30.5391 59.7266 30.6328 59.6328C30.7266 59.5391 30.8008 59.4297 30.8555 59.3047C30.9102 59.1758 30.9375 59.0391 30.9375 58.8945V57.5938ZM34.9805 60.5H34.623L32.4961 54.5H33.2168L34.7812 59.0469L34.8047 59.3574L34.8281 59.0469L36.3867 54.5H37.1074L34.9805 60.5ZM41.959 58.8535C41.959 59.0957 41.9121 59.3242 41.8184 59.5391C41.7285 59.7539 41.6035 59.9414 41.4434 60.1016C41.2832 60.2617 41.0957 60.3887 40.8809 60.4824C40.666 60.5723 40.4375 60.6172 40.1953 60.6172H39.7148C39.4727 60.6172 39.2441 60.5723 39.0293 60.4824C38.8145 60.3887 38.627 60.2617 38.4668 60.1016C38.3066 59.9414 38.1797 59.7539 38.0859 59.5391C37.9961 59.3242 37.9512 59.0957 37.9512 58.8535V56.1465C37.9512 55.9043 37.9961 55.6758 38.0859 55.4609C38.1797 55.2461 38.3066 55.0586 38.4668 54.8984C38.627 54.7383 38.8145 54.6133 39.0293 54.5234C39.2441 54.4297 39.4727 54.3828 39.7148 54.3828H40.1953C40.4375 54.3828 40.666 54.4297 40.8809 54.5234C41.0957 54.6133 41.2832 54.7383 41.4434 54.8984C41.6035 55.0586 41.7285 55.2461 41.8184 55.4609C41.9121 55.6758 41.959 55.9043 41.959 56.1465V58.8535ZM41.2383 56.1055C41.2383 55.9609 41.2109 55.8262 41.1562 55.7012C41.1016 55.5723 41.0273 55.4609 40.9336 55.3672C40.8398 55.2734 40.7285 55.1992 40.5996 55.1445C40.4746 55.0898 40.3398 55.0625 40.1953 55.0625H39.7148C39.5703 55.0625 39.4336 55.0898 39.3047 55.1445C39.1797 55.1992 39.0703 55.2734 38.9766 55.3672C38.8828 55.4609 38.8086 55.5723 38.7539 55.7012C38.6992 55.8262 38.6719 55.9609 38.6719 56.1055V58.8945C38.6719 59.0391 38.6992 59.1758 38.7539 59.3047C38.8086 59.4297 38.8828 59.5391 38.9766 59.6328C39.0703 59.7266 39.1797 59.8008 39.3047 59.8555C39.4336 59.9102 39.5703 59.9375 39.7148 59.9375H40.1953C40.3398 59.9375 40.4746 59.9102 40.5996 59.8555C40.7285 59.8008 40.8398 59.7266 40.9336 59.6328C41.0273 59.5391 41.1016 59.4297 41.1562 59.3047C41.2109 59.1758 41.2383 59.0391 41.2383 58.8945V56.1055ZM45.1641 55.1855C45.0195 55.1855 44.8828 55.2129 44.7539 55.2676C44.6289 55.3223 44.5195 55.3965 44.4258 55.4902C44.332 55.584 44.2578 55.6953 44.2031 55.8242C44.1484 55.9492 44.1211 56.084 44.1211 56.2285V60.5H43.4004V54.5H43.6406L44.0332 55.1094C44.1973 54.8867 44.4023 54.7109 44.6484 54.582C44.8984 54.4492 45.1699 54.3828 45.4629 54.3828H45.8848V55.1855H45.1641ZM47.0273 53.0586V52.0977H47.8652V53.0586H47.0273ZM47.0859 60.5V54.5H47.8066V60.5H47.0859ZM51.6797 60.5C51.4609 60.5 51.2539 60.459 51.0586 60.377C50.8672 60.2949 50.6992 60.1816 50.5547 60.0371C50.4141 59.8926 50.3008 59.7246 50.2148 59.5332C50.1328 59.3418 50.0918 59.1367 50.0918 58.918V55.1855H49.0137V54.5H50.0918V53.0586L50.8125 52.9414V54.5H52.3359V55.1855H50.8125V58.9531C50.8125 59.0742 50.834 59.1875 50.877 59.293C50.9238 59.3945 50.9863 59.4844 51.0645 59.5625C51.1426 59.6406 51.2344 59.7031 51.3398 59.75C51.4453 59.793 51.5586 59.8145 51.6797 59.8145H52.3359V60.5H51.6797ZM57.6738 58.8535C57.6738 59.0957 57.627 59.3242 57.5332 59.5391C57.4434 59.7539 57.3184 59.9414 57.1582 60.1016C56.998 60.2617 56.8105 60.3887 56.5957 60.4824C56.3809 60.5723 56.1523 60.6172 55.9102 60.6172H55.4297C55.1875 60.6172 54.959 60.5723 54.7441 60.4824C54.5293 60.3887 54.3418 60.2617 54.1816 60.1016C54.0215 59.9414 53.8945 59.7539 53.8008 59.5391C53.7109 59.3242 53.666 59.0957 53.666 58.8535V56.1465C53.666 55.9043 53.7109 55.6758 53.8008 55.4609C53.8945 55.2461 54.0215 55.0586 54.1816 54.8984C54.3418 54.7383 54.5293 54.6133 54.7441 54.5234C54.959 54.4297 55.1875 54.3828 55.4297 54.3828H55.9102C56.1523 54.3828 56.3809 54.4297 56.5957 54.5234C56.8105 54.6133 56.998 54.7383 57.1582 54.8984C57.3184 55.0586 57.4434 55.2461 57.5332 55.4609C57.627 55.6758 57.6738 55.9043 57.6738 56.1465V57.5586H54.3867V58.8945C54.3867 59.0391 54.4141 59.1758 54.4688 59.3047C54.5234 59.4297 54.5977 59.5391 54.6914 59.6328C54.7852 59.7266 54.8945 59.8008 55.0195 59.8555C55.1484 59.9102 55.2852 59.9375 55.4297 59.9375H55.9102C56.0547 59.9375 56.1895 59.9102 56.3145 59.8555C56.4434 59.8008 56.5547 59.7266 56.6484 59.6328C56.7422 59.5391 56.8164 59.4297 56.8711 59.3047C56.9258 59.1758 56.9531 59.0391 56.9531 58.8945V58.4961L57.6738 58.6133V58.8535ZM56.9531 56.1055C56.9531 55.9609 56.9258 55.8262 56.8711 55.7012C56.8164 55.5723 56.7422 55.4609 56.6484 55.3672C56.5547 55.2734 56.4434 55.1992 56.3145 55.1445C56.1895 55.0898 56.0547 55.0625 55.9102 55.0625H55.4297C55.2852 55.0625 55.1484 55.0898 55.0195 55.1445C54.8945 55.1992 54.7852 55.2734 54.6914 55.3672C54.5977 55.4609 54.5234 55.5723 54.4688 55.7012C54.4141 55.8262 54.3867 55.9609 54.3867 56.1055V56.9961H56.9531V56.1055Z" fill="#9DB2CE"/>
<path d="M112.5 33.5C117.747 33.5 122 29.2467 122 24C122 18.7533 117.747 14.5 112.5 14.5C107.253 14.5 103 18.7533 103 24C103 29.2467 107.253 33.5 112.5 33.5Z" stroke="#9DB2CE" stroke-width="1.5" stroke-linecap="round" stroke-linejoin="round"/>
<path d="M123 34.5L121 32.5" stroke="#9DB2CE" stroke-width="1.5" stroke-linecap="round" stroke-linejoin="round"/>
<path d="M102.566 58.5547C102.566 58.8398 102.508 59.1074 102.391 59.3574C102.277 59.6074 102.123 59.8262 101.928 60.0137C101.736 60.2012 101.512 60.3496 101.254 60.459C101 60.5645 100.73 60.6172 100.445 60.6172H99.8418C99.5566 60.6172 99.2852 60.5645 99.0273 60.459C98.7734 60.3496 98.5488 60.2012 98.3535 60.0137C98.1621 59.8262 98.0078 59.6074 97.8906 59.3574C97.7773 59.1074 97.7207 58.8398 97.7207 58.5547V58.2207L98.4766 58.0977V58.5547C98.4766 58.7422 98.5137 58.918 98.5879 59.082C98.666 59.2422 98.7695 59.3848 98.8984 59.5098C99.0273 59.6309 99.1758 59.7266 99.3438 59.7969C99.5156 59.8672 99.6953 59.9023 99.8828 59.9023H100.41C100.598 59.9023 100.775 59.8672 100.943 59.7969C101.111 59.7266 101.26 59.6309 101.389 59.5098C101.518 59.3848 101.619 59.2422 101.693 59.082C101.771 58.918 101.811 58.7422 101.811 58.5547V58.3027C101.811 58.0137 101.754 57.7734 101.641 57.582C101.527 57.3906 101.377 57.2285 101.189 57.0957C101.002 56.959 100.789 56.8438 100.551 56.75C100.316 56.6562 100.074 56.5625 99.8242 56.4688C99.5742 56.375 99.3301 56.2715 99.0918 56.1582C98.8574 56.0449 98.6465 55.9043 98.459 55.7363C98.2715 55.5645 98.1211 55.3555 98.0078 55.1094C97.8945 54.8633 97.8379 54.5605 97.8379 54.2012V54.043C97.8379 53.7578 97.8906 53.4902 97.9961 53.2402C98.1055 52.9902 98.2539 52.7715 98.4414 52.584C98.6289 52.3965 98.8477 52.25 99.0977 52.1445C99.3516 52.0352 99.6211 51.9805 99.9062 51.9805H100.445C100.73 51.9805 100.998 52.0352 101.248 52.1445C101.498 52.25 101.717 52.3965 101.904 52.584C102.092 52.7715 102.238 52.9902 102.344 53.2402C102.453 53.4902 102.508 53.7578 102.508 54.043V54.2598L101.752 54.3828V54.043C101.752 53.8555 101.717 53.6816 101.646 53.5215C101.576 53.3574 101.48 53.2148 101.359 53.0938C101.238 52.9727 101.096 52.877 100.932 52.8066C100.771 52.7363 100.598 52.7012 100.41 52.7012H99.9414C99.7539 52.7012 99.5781 52.7363 99.4141 52.8066C99.2539 52.877 99.1113 52.9727 98.9863 53.0938C98.8652 53.2148 98.7695 53.3574 98.6992 53.5215C98.6289 53.6816 98.5938 53.8555 98.5938 54.043V54.2012C98.5938 54.4707 98.6504 54.6973 98.7637 54.8809C98.877 55.0645 99.0273 55.2227 99.2148 55.3555C99.4023 55.4844 99.6133 55.5977 99.8477 55.6953C100.086 55.7891 100.33 55.8867 100.58 55.9883C100.83 56.0859 101.072 56.1953 101.307 56.3164C101.545 56.4336 101.758 56.5801 101.945 56.7559C102.133 56.9277 102.283 57.1387 102.396 57.3887C102.51 57.6387 102.566 57.9434 102.566 58.3027V58.5547ZM107.963 58.8535C107.963 59.0957 107.916 59.3242 107.822 59.5391C107.732 59.7539 107.607 59.9414 107.447 60.1016C107.287 60.2617 107.1 60.3887 106.885 60.4824C106.67 60.5723 106.441 60.6172 106.199 60.6172H105.719C105.477 60.6172 105.248 60.5723 105.033 60.4824C104.818 60.3887 104.631 60.2617 104.471 60.1016C104.311 59.9414 104.184 59.7539 104.09 59.5391C104 59.3242 103.955 59.0957 103.955 58.8535V56.1465C103.955 55.9043 104 55.6758 104.09 55.4609C104.184 55.2461 104.311 55.0586 104.471 54.8984C104.631 54.7383 104.818 54.6133 105.033 54.5234C105.248 54.4297 105.477 54.3828 105.719 54.3828H106.199C106.441 54.3828 106.67 54.4297 106.885 54.5234C107.1 54.6133 107.287 54.7383 107.447 54.8984C107.607 55.0586 107.732 55.2461 107.822 55.4609C107.916 55.6758 107.963 55.9043 107.963 56.1465V57.5586H104.676V58.8945C104.676 59.0391 104.703 59.1758 104.758 59.3047C104.812 59.4297 104.887 59.5391 104.98 59.6328C105.074 59.7266 105.184 59.8008 105.309 59.8555C105.438 59.9102 105.574 59.9375 105.719 59.9375H106.199C106.344 59.9375 106.479 59.9102 106.604 59.8555C106.732 59.8008 106.844 59.7266 106.938 59.6328C107.031 59.5391 107.105 59.4297 107.16 59.3047C107.215 59.1758 107.242 59.0391 107.242 58.8945V58.4961L107.963 58.6133V58.8535ZM107.242 56.1055C107.242 55.9609 107.215 55.8262 107.16 55.7012C107.105 55.5723 107.031 55.4609 106.938 55.3672C106.844 55.2734 106.732 55.1992 106.604 55.1445C106.479 55.0898 106.344 55.0625 106.199 55.0625H105.719C105.574 55.0625 105.438 55.0898 105.309 55.1445C105.184 55.1992 105.074 55.2734 104.98 55.3672C104.887 55.4609 104.812 55.5723 104.758 55.7012C104.703 55.8262 104.676 55.9609 104.676 56.1055V56.9961H107.242V56.1055ZM113.172 60.5L112.773 59.9023C112.609 60.1172 112.404 60.291 112.158 60.4238C111.912 60.5527 111.643 60.6172 111.35 60.6172H111.168C110.926 60.6172 110.697 60.5723 110.482 60.4824C110.268 60.3887 110.08 60.2617 109.92 60.1016C109.76 59.9414 109.633 59.7539 109.539 59.5391C109.449 59.3242 109.404 59.0957 109.404 58.8535V58.7949C109.404 58.5527 109.449 58.3242 109.539 58.1094C109.633 57.8945 109.76 57.707 109.92 57.5469C110.08 57.3867 110.268 57.2617 110.482 57.1719C110.697 57.0781 110.926 57.0312 111.168 57.0312H112.691V56.1055C112.691 55.9609 112.664 55.8262 112.609 55.7012C112.555 55.5723 112.48 55.4609 112.387 55.3672C112.293 55.2734 112.182 55.1992 112.053 55.1445C111.928 55.0898 111.793 55.0625 111.648 55.0625H111.227C111.082 55.0625 110.945 55.0898 110.816 55.1445C110.691 55.1992 110.582 55.2734 110.488 55.3672C110.395 55.4609 110.32 55.5723 110.266 55.7012C110.211 55.8262 110.184 55.9609 110.184 56.1055V56.3223L109.463 56.2051V56.1465C109.463 55.9043 109.508 55.6758 109.598 55.4609C109.691 55.2461 109.818 55.0586 109.979 54.8984C110.139 54.7383 110.326 54.6133 110.541 54.5234C110.756 54.4297 110.984 54.3828 111.227 54.3828H111.648C111.891 54.3828 112.119 54.4297 112.334 54.5234C112.549 54.6133 112.736 54.7383 112.896 54.8984C113.057 55.0586 113.182 55.2461 113.271 55.4609C113.365 55.6758 113.412 55.9043 113.412 56.1465V60.5H113.172ZM112.691 57.5938H111.168C111.023 57.5938 110.887 57.6211 110.758 57.6758C110.633 57.7305 110.523 57.8066 110.43 57.9043C110.336 57.998 110.262 58.1094 110.207 58.2383C110.152 58.3633 110.125 58.498 110.125 58.6426V58.8945C110.125 59.0391 110.152 59.1758 110.207 59.3047C110.262 59.4297 110.336 59.5391 110.43 59.6328C110.523 59.7266 110.633 59.8008 110.758 59.8555C110.887 59.9102 111.023 59.9375 111.168 59.9375H111.648C111.793 59.9375 111.928 59.9102 112.053 59.8555C112.182 59.8008 112.293 59.7266 112.387 59.6328C112.48 59.5391 112.555 59.4297 112.609 59.3047C112.664 59.1758 112.691 59.0391 112.691 58.8945V57.5938ZM116.617 55.1855C116.473 55.1855 116.336 55.2129 116.207 55.2676C116.082 55.3223 115.973 55.3965 115.879 55.4902C115.785 55.584 115.711 55.6953 115.656 55.8242C115.602 55.9492 115.574 56.084 115.574 56.2285V60.5H114.854V54.5H115.094L115.486 55.1094C115.65 54.8867 115.855 54.7109 116.102 54.582C116.352 54.4492 116.623 54.3828 116.916 54.3828H117.338V55.1855H116.617ZM122.307 58.8535C122.307 59.0957 122.26 59.3242 122.166 59.5391C122.076 59.7539 121.951 59.9414 121.791 60.1016C121.631 60.2617 121.443 60.3887 121.229 60.4824C121.014 60.5723 120.785 60.6172 120.543 60.6172H120.062C119.82 60.6172 119.592 60.5723 119.377 60.4824C119.162 60.3887 118.975 60.2617 118.814 60.1016C118.654 59.9414 118.527 59.7539 118.434 59.5391C118.344 59.3242 118.299 59.0957 118.299 58.8535V56.1465C118.299 55.9043 118.344 55.6758 118.434 55.4609C118.527 55.2461 118.654 55.0586 118.814 54.8984C118.975 54.7383 119.162 54.6133 119.377 54.5234C119.592 54.4297 119.82 54.3828 120.062 54.3828H120.543C120.785 54.3828 121.014 54.4297 121.229 54.5234C121.443 54.6133 121.631 54.7383 121.791 54.8984C121.951 55.0586 122.076 55.2461 122.166 55.4609C122.26 55.6758 122.307 55.9043 122.307 56.1465V56.3867L121.586 56.5039V56.1055C121.586 55.9609 121.559 55.8262 121.504 55.7012C121.449 55.5723 121.375 55.4609 121.281 55.3672C121.188 55.2734 121.076 55.1992 120.947 55.1445C120.822 55.0898 120.688 55.0625 120.543 55.0625H120.062C119.918 55.0625 119.781 55.0898 119.652 55.1445C119.527 55.1992 119.418 55.2734 119.324 55.3672C119.23 55.4609 119.156 55.5723 119.102 55.7012C119.047 55.8262 119.02 55.9609 119.02 56.1055V58.8945C119.02 59.0391 119.047 59.1758 119.102 59.3047C119.156 59.4297 119.23 59.5391 119.324 59.6328C119.418 59.7266 119.527 59.8008 119.652 59.8555C119.781 59.9102 119.918 59.9375 120.062 59.9375H120.543C120.688 59.9375 120.822 59.9102 120.947 59.8555C121.076 59.8008 121.188 59.7266 121.281 59.6328C121.375 59.5391 121.449 59.4297 121.504 59.3047C121.559 59.1758 121.586 59.0391 121.586 58.8945V58.4961L122.307 58.6133V58.8535ZM127.035 60.5V56.1055C127.035 55.9609 127.008 55.8262 126.953 55.7012C126.898 55.5723 126.824 55.4609 126.73 55.3672C126.637 55.2734 126.525 55.1992 126.396 55.1445C126.271 55.0898 126.137 55.0625 125.992 55.0625H125.512C125.367 55.0625 125.23 55.0898 125.102 55.1445C124.977 55.1992 124.867 55.2734 124.773 55.3672C124.68 55.4609 124.605 55.5723 124.551 55.7012C124.496 55.8262 124.469 55.9609 124.469 56.1055V60.5H123.748V52.0977H124.469V55.0039C124.633 54.8086 124.83 54.6562 125.061 54.5469C125.291 54.4375 125.541 54.3828 125.811 54.3828H125.992C126.234 54.3828 126.463 54.4297 126.678 54.5234C126.893 54.6133 127.08 54.7383 127.24 54.8984C127.4 55.0586 127.525 55.2461 127.615 55.4609C127.709 55.6758 127.756 55.9043 127.756 56.1465V60.5H127.035Z" fill="#9DB2CE"/>
<path d="M285.81 14.5L282.19 18.13" stroke="#9DB2CE" stroke-width="1.5" stroke-miterlimit="10" stroke-linecap="round" stroke-linejoin="round"/>
<path d="M292.19 14.5L295.81 18.13" stroke="#9DB2CE" stroke-width="1.5" stroke-miterlimit="10" stroke-linecap="round" stroke-linejoin="round"/>
<path d="M279 20.35C279 18.5 279.99 18.35 281.22 18.35H296.78C298.01 18.35 299 18.5 299 20.35C299 22.5 298.01 22.35 296.78 22.35H281.22C279.99 22.35 279 22.5 279 20.35Z" stroke="#9DB2CE" stroke-width="1.5"/>
<path d="M286.76 26.5V30.05" stroke="#9DB2CE" stroke-width="1.5" stroke-linecap="round"/>
<path d="M291.36 26.5V30.05" stroke="#9DB2CE" stroke-width="1.5" stroke-linecap="round"/>
<path d="M280.5 22.5L281.91 31.14C282.23 33.08 283 34.5 285.86 34.5H291.89C295 34.5 295.46 33.14 295.82 31.26L297.5 22.5" stroke="#9DB2CE" stroke-width="1.5" stroke-linecap="round"/>
<path d="M284.566 58.5547C284.566 58.8398 284.512 59.1074 284.402 59.3574C284.297 59.6074 284.15 59.8262 283.963 60.0137C283.775 60.2012 283.557 60.3496 283.307 60.459C283.057 60.5645 282.789 60.6172 282.504 60.6172H281.906C281.621 60.6172 281.352 60.5645 281.098 60.459C280.848 60.3496 280.629 60.2012 280.441 60.0137C280.254 59.8262 280.105 59.6074 279.996 59.3574C279.891 59.1074 279.838 58.8398 279.838 58.5547V54.043C279.838 53.7578 279.891 53.4902 279.996 53.2402C280.105 52.9902 280.254 52.7715 280.441 52.584C280.629 52.3965 280.848 52.25 281.098 52.1445C281.352 52.0352 281.621 51.9805 281.906 51.9805H282.504C282.789 51.9805 283.057 52.0352 283.307 52.1445C283.557 52.25 283.775 52.3965 283.963 52.584C284.15 52.7715 284.297 52.9902 284.402 53.2402C284.512 53.4902 284.566 53.7578 284.566 54.043V54.3828L283.811 54.5V54.043C283.811 53.8555 283.775 53.6816 283.705 53.5215C283.635 53.3574 283.539 53.2148 283.418 53.0938C283.297 52.9727 283.154 52.877 282.99 52.8066C282.83 52.7363 282.656 52.7012 282.469 52.7012H281.941C281.754 52.7012 281.578 52.7363 281.414 52.8066C281.254 52.877 281.111 52.9727 280.986 53.0938C280.865 53.2148 280.77 53.3574 280.699 53.5215C280.629 53.6816 280.594 53.8555 280.594 54.043V58.5547C280.594 58.7422 280.629 58.918 280.699 59.082C280.77 59.2422 280.865 59.3848 280.986 59.5098C281.111 59.6309 281.254 59.7266 281.414 59.7969C281.578 59.8672 281.754 59.9023 281.941 59.9023H282.469C282.656 59.9023 282.83 59.8672 282.99 59.7969C283.154 59.7266 283.297 59.6309 283.418 59.5098C283.539 59.3848 283.635 59.2422 283.705 59.082C283.775 58.918 283.811 58.7422 283.811 58.5547V58.0977L284.566 58.2207V58.5547ZM289.781 60.5L289.383 59.9023C289.219 60.1172 289.014 60.291 288.768 60.4238C288.521 60.5527 288.252 60.6172 287.959 60.6172H287.777C287.535 60.6172 287.307 60.5723 287.092 60.4824C286.877 60.3887 286.689 60.2617 286.529 60.1016C286.369 59.9414 286.242 59.7539 286.148 59.5391C286.059 59.3242 286.014 59.0957 286.014 58.8535V58.7949C286.014 58.5527 286.059 58.3242 286.148 58.1094C286.242 57.8945 286.369 57.707 286.529 57.5469C286.689 57.3867 286.877 57.2617 287.092 57.1719C287.307 57.0781 287.535 57.0312 287.777 57.0312H289.301V56.1055C289.301 55.9609 289.273 55.8262 289.219 55.7012C289.164 55.5723 289.09 55.4609 288.996 55.3672C288.902 55.2734 288.791 55.1992 288.662 55.1445C288.537 55.0898 288.402 55.0625 288.258 55.0625H287.836C287.691 55.0625 287.555 55.0898 287.426 55.1445C287.301 55.1992 287.191 55.2734 287.098 55.3672C287.004 55.4609 286.93 55.5723 286.875 55.7012C286.82 55.8262 286.793 55.9609 286.793 56.1055V56.3223L286.072 56.2051V56.1465C286.072 55.9043 286.117 55.6758 286.207 55.4609C286.301 55.2461 286.428 55.0586 286.588 54.8984C286.748 54.7383 286.936 54.6133 287.15 54.5234C287.365 54.4297 287.594 54.3828 287.836 54.3828H288.258C288.5 54.3828 288.729 54.4297 288.943 54.5234C289.158 54.6133 289.346 54.7383 289.506 54.8984C289.666 55.0586 289.791 55.2461 289.881 55.4609C289.975 55.6758 290.021 55.9043 290.021 56.1465V60.5H289.781ZM289.301 57.5938H287.777C287.633 57.5938 287.496 57.6211 287.367 57.6758C287.242 57.7305 287.133 57.8066 287.039 57.9043C286.945 57.998 286.871 58.1094 286.816 58.2383C286.762 58.3633 286.734 58.498 286.734 58.6426V58.8945C286.734 59.0391 286.762 59.1758 286.816 59.3047C286.871 59.4297 286.945 59.5391 287.039 59.6328C287.133 59.7266 287.242 59.8008 287.367 59.8555C287.496 59.9102 287.633 59.9375 287.777 59.9375H288.258C288.402 59.9375 288.537 59.9102 288.662 59.8555C288.791 59.8008 288.902 59.7266 288.996 59.6328C289.09 59.5391 289.164 59.4297 289.219 59.3047C289.273 59.1758 289.301 59.0391 289.301 58.8945V57.5938ZM293.227 55.1855C293.082 55.1855 292.945 55.2129 292.816 55.2676C292.691 55.3223 292.582 55.3965 292.488 55.4902C292.395 55.584 292.32 55.6953 292.266 55.8242C292.211 55.9492 292.184 56.084 292.184 56.2285V60.5H291.463V54.5H291.703L292.096 55.1094C292.26 54.8867 292.465 54.7109 292.711 54.582C292.961 54.4492 293.232 54.3828 293.525 54.3828H293.947V55.1855H293.227ZM297.094 60.5C296.875 60.5 296.668 60.459 296.473 60.377C296.281 60.2949 296.113 60.1816 295.969 60.0371C295.828 59.8926 295.715 59.7246 295.629 59.5332C295.547 59.3418 295.506 59.1367 295.506 58.918V55.1855H294.428V54.5H295.506V53.0586L296.227 52.9414V54.5H297.75V55.1855H296.227V58.9531C296.227 59.0742 296.248 59.1875 296.291 59.293C296.338 59.3945 296.4 59.4844 296.479 59.5625C296.557 59.6406 296.648 59.7031 296.754 59.75C296.859 59.793 296.973 59.8145 297.094 59.8145H297.75V60.5H297.094Z" fill="#9DB2CE"/>
<path d="M354 24.5C356.761 24.5 359 22.2614 359 19.5C359 16.7386 356.761 14.5 354 14.5C351.239 14.5 349 16.7386 349 19.5C349 22.2614 351.239 24.5 354 24.5Z" fill="#9DB2CE"/>
<path d="M345.41 34.5C345.41 30.722 349.172 27.5 354 27.5C358.828 27.5 362.59 30.722 362.59 34.5H345.41Z" fill="#9DB2CE" stroke="#9DB2CE"/>
<path d="M344.689 55.209C344.689 55.4941 344.635 55.7617 344.525 56.0117C344.42 56.2617 344.273 56.4805 344.086 56.668C343.898 56.8555 343.678 57.0039 343.424 57.1133C343.174 57.2188 342.906 57.2715 342.621 57.2715H340.717V60.5H339.961V52.0977H342.621C342.906 52.0977 343.174 52.1523 343.424 52.2617C343.678 52.3672 343.898 52.5137 344.086 52.7012C344.273 52.8887 344.42 53.1094 344.525 53.3633C344.635 53.6133 344.689 53.8809 344.689 54.166V55.209ZM343.934 54.166C343.934 53.9785 343.898 53.8047 343.828 53.6445C343.758 53.4805 343.66 53.3379 343.535 53.2168C343.414 53.0918 343.271 52.9941 343.107 52.9238C342.947 52.8535 342.773 52.8184 342.586 52.8184H340.717V56.5508H342.586C342.773 56.5508 342.947 56.5156 343.107 56.4453C343.271 56.375 343.414 56.2793 343.535 56.1582C343.66 56.0371 343.758 55.8965 343.828 55.7363C343.898 55.5723 343.934 55.3965 343.934 55.209V54.166ZM347.66 55.1855C347.516 55.1855 347.379 55.2129 347.25 55.2676C347.125 55.3223 347.016 55.3965 346.922 55.4902C346.828 55.584 346.754 55.6953 346.699 55.8242C346.645 55.9492 346.617 56.084 346.617 56.2285V60.5H345.896V54.5H346.137L346.529 55.1094C346.693 54.8867 346.898 54.7109 347.145 54.582C347.395 54.4492 347.666 54.3828 347.959 54.3828H348.381V55.1855H347.66ZM353.35 58.8535C353.35 59.0957 353.303 59.3242 353.209 59.5391C353.119 59.7539 352.994 59.9414 352.834 60.1016C352.674 60.2617 352.486 60.3887 352.271 60.4824C352.057 60.5723 351.828 60.6172 351.586 60.6172H351.105C350.863 60.6172 350.635 60.5723 350.42 60.4824C350.205 60.3887 350.018 60.2617 349.857 60.1016C349.697 59.9414 349.57 59.7539 349.477 59.5391C349.387 59.3242 349.342 59.0957 349.342 58.8535V56.1465C349.342 55.9043 349.387 55.6758 349.477 55.4609C349.57 55.2461 349.697 55.0586 349.857 54.8984C350.018 54.7383 350.205 54.6133 350.42 54.5234C350.635 54.4297 350.863 54.3828 351.105 54.3828H351.586C351.828 54.3828 352.057 54.4297 352.271 54.5234C352.486 54.6133 352.674 54.7383 352.834 54.8984C352.994 55.0586 353.119 55.2461 353.209 55.4609C353.303 55.6758 353.35 55.9043 353.35 56.1465V58.8535ZM352.629 56.1055C352.629 55.9609 352.602 55.8262 352.547 55.7012C352.492 55.5723 352.418 55.4609 352.324 55.3672C352.23 55.2734 352.119 55.1992 351.99 55.1445C351.865 55.0898 351.73 55.0625 351.586 55.0625H351.105C350.961 55.0625 350.824 55.0898 350.695 55.1445C350.57 55.1992 350.461 55.2734 350.367 55.3672C350.273 55.4609 350.199 55.5723 350.145 55.7012C350.09 55.8262 350.062 55.9609 350.062 56.1055V58.8945C350.062 59.0391 350.09 59.1758 350.145 59.3047C350.199 59.4297 350.273 59.5391 350.367 59.6328C350.461 59.7266 350.57 59.8008 350.695 59.8555C350.824 59.9102 350.961 59.9375 351.105 59.9375H351.586C351.73 59.9375 351.865 59.9102 351.99 59.8555C352.119 59.8008 352.23 59.7266 352.324 59.6328C352.418 59.5391 352.492 59.4297 352.547 59.3047C352.602 59.1758 352.629 59.0391 352.629 58.8945V56.1055ZM356.854 52.7832C356.732 52.7832 356.619 52.8066 356.514 52.8535C356.412 52.8965 356.322 52.957 356.244 53.0352C356.166 53.1133 356.104 53.2051 356.057 53.3105C356.014 53.416 355.992 53.5293 355.992 53.6504V54.5H357.393V55.1855H355.992V60.5H355.271V55.1855H354.188V54.5H355.271V53.6855C355.271 53.4668 355.312 53.2617 355.395 53.0703C355.477 52.875 355.59 52.7051 355.734 52.5605C355.879 52.416 356.047 52.3027 356.238 52.2207C356.43 52.1387 356.635 52.0977 356.854 52.0977H357.516V52.7832H356.854ZM358.418 53.0586V52.0977H359.256V53.0586H358.418ZM358.477 60.5V54.5H359.197V60.5H358.477ZM361.125 60.5V52.0977H361.846V60.5H361.125ZM367.541 58.8535C367.541 59.0957 367.494 59.3242 367.4 59.5391C367.311 59.7539 367.186 59.9414 367.025 60.1016C366.865 60.2617 366.678 60.3887 366.463 60.4824C366.248 60.5723 366.02 60.6172 365.777 60.6172H365.297C365.055 60.6172 364.826 60.5723 364.611 60.4824C364.396 60.3887 364.209 60.2617 364.049 60.1016C363.889 59.9414 363.762 59.7539 363.668 59.5391C363.578 59.3242 363.533 59.0957 363.533 58.8535V56.1465C363.533 55.9043 363.578 55.6758 363.668 55.4609C363.762 55.2461 363.889 55.0586 364.049 54.8984C364.209 54.7383 364.396 54.6133 364.611 54.5234C364.826 54.4297 365.055 54.3828 365.297 54.3828H365.777C366.02 54.3828 366.248 54.4297 366.463 54.5234C366.678 54.6133 366.865 54.7383 367.025 54.8984C367.186 55.0586 367.311 55.2461 367.4 55.4609C367.494 55.6758 367.541 55.9043 367.541 56.1465V57.5586H364.254V58.8945C364.254 59.0391 364.281 59.1758 364.336 59.3047C364.391 59.4297 364.465 59.5391 364.559 59.6328C364.652 59.7266 364.762 59.8008 364.887 59.8555C365.016 59.9102 365.152 59.9375 365.297 59.9375H365.777C365.922 59.9375 366.057 59.9102 366.182 59.8555C366.311 59.8008 366.422 59.7266 366.516 59.6328C366.609 59.5391 366.684 59.4297 366.738 59.3047C366.793 59.1758 366.82 59.0391 366.82 58.8945V58.4961L367.541 58.6133V58.8535ZM366.82 56.1055C366.82 55.9609 366.793 55.8262 366.738 55.7012C366.684 55.5723 366.609 55.4609 366.516 55.3672C366.422 55.2734 366.311 55.1992 366.182 55.1445C366.057 55.0898 365.922 55.0625 365.777 55.0625H365.297C365.152 55.0625 365.016 55.0898 364.887 55.1445C364.762 55.1992 364.652 55.2734 364.559 55.3672C364.465 55.4609 364.391 55.5723 364.336 55.7012C364.281 55.8262 364.254 55.9609 364.254 56.1055V56.9961H366.82V56.1055Z" fill="#9DB2CE"/>
</svg>
